<?xml version="1.0" encoding="utf-8"?>
<svg viewBox="165.324 165.324 169.352 169.352" xmlns="http://www.w3.org/2000/svg" xmlns:xlink="http://www.w3.org/1999/xlink">
  <ellipse style="fill: rgb(255, 255, 255);" cx="250" cy="250" rx="84.676" ry="84.676" transform="matrix(1, 0, 0, 1, 7.105427357601002e-15, 7.105427357601002e-15)"/>
  <g id="logo-group" transform="matrix(1, 0, 0, 1, -144.97918701171875, -134.59121704101562)">
    <image id="container" x="272" y="144" width="480" height="480" transform="translate(0 0)" style="display: none;" xlink:href=""/>
    <g id="logo-center" transform="translate(0 0)">
      <image id="icon_container" x="0" y="0" style="display: none;" xlink:href=""/>
      <g id="slogan" style="font-style:oblique;font-weight:300;font-size:32px;line-height:1;font-family:'Nunito Sans';font-variant-ligatures:none;text-align:center;text-anchor:middle" transform="translate(0 0)"/>
      <g id="title" style="font-style:normal;font-weight:normal;font-size:72px;line-height:1;font-family:'Atkinson Hyperlegible';font-variant-ligatures:none;text-align:center;text-anchor:middle" transform="translate(0 0)">
        <path id="path654064" style="font-style: normal; font-weight: normal; font-size: 72px; line-height: 1; font-family: 'Atkinson Hyperlegible'; font-variant-ligatures: none; text-align: center; text-anchor: middle; fill: rgb(52, 55, 65);" d="m 375.05994,-13.176 q 1.44,0 2.664,0.576 1.296,0.504 2.232,1.44 1.008,0.936 1.512,2.232 0.576,1.296 0.576,2.736 0,1.44 -0.576,2.736 -0.504,1.296 -1.512,2.304 -0.936,0.936 -2.232,1.44 -1.224,0.576 -2.664,0.576 -2.952,0 -5.04,-2.016 -2.016,-2.088 -2.016,-5.04 0,-2.952 2.016,-4.968 2.088,-2.016 5.04,-2.016 z m -7.056,-34.92 h 13.968 v 12.456 l -3.024,18.144 h -7.992 l -2.952,-18.144 z" stroke-width="0" stroke-linejoin="miter" stroke-miterlimit="2" stroke="#fcfefe" transform="translate(0 315.424) translate(329.99749999999995 37.976) scale(1.25) translate(-368.00394 48.096)"/>
        <path id="path654066" style="font-style: normal; font-weight: normal; font-size: 72px; line-height: 1; font-family: 'Atkinson Hyperlegible'; font-variant-ligatures: none; text-align: center; text-anchor: middle; fill: rgb(52, 55, 65);" d="m 396.02656,-16.416 q 0.288,1.512 0.864,3.024 0.576,1.512 1.512,2.664 0.936,1.152 2.16,1.872 1.296,0.72 3.024,0.72 3.6,0 5.472,-2.232 1.944,-2.304 1.944,-8.064 v -29.664 h 11.376 v 29.664 q 0,9.072 -4.752,14.184 -4.752,5.112 -14.04,5.112 -7.56,0 -12.024,-3.672 -4.464,-3.672 -5.976,-9.792 l 10.44,-3.816 z" stroke-width="0" stroke-linejoin="miter" stroke-miterlimit="2" stroke="#fcfefe" transform="translate(0 315.424) translate(351.97577499999994 37.976) scale(1.25) translate(-385.58656 48.096)"/>
        <path id="path654074" style="font-style:normal;font-weight:normal;font-size:72px;line-height:1;font-family:'Atkinson Hyperlegible';font-variant-ligatures:none;text-align:center;text-anchor:middle" d="M 423.673 353.4 C 428.593 353.4 433.153 353.91 437.353 354.93 C 441.613 355.89 445.303 357.54 448.423 359.88 C 451.543 362.22 454.003 365.31 455.803 369.15 C 457.603 372.99 458.503 377.76 458.503 383.46 C 458.503 389.22 457.603 394.02 455.803 397.86 C 454.003 401.7 451.543 404.79 448.423 407.13 C 445.303 409.41 441.613 411.06 437.353 412.08 C 433.153 413.04 428.593 413.52 423.673 413.52 L 403.873 413.52 L 403.873 353.4 L 423.673 353.4 Z M 418.093 401.55 L 423.943 401.55 C 426.523 401.55 429.013 401.37 431.413 401.01 C 433.813 400.59 435.913 399.75 437.713 398.49 C 439.573 397.17 441.043 395.34 442.123 393 C 443.263 390.6 443.833 387.42 443.833 383.46 C 443.833 379.5 443.263 376.32 442.123 373.92 C 441.043 371.52 439.573 369.69 437.713 368.43 C 435.913 367.11 433.813 366.24 431.413 365.82 C 429.013 365.4 426.523 365.19 423.943 365.19 L 418.093 365.19 L 418.093 401.55 Z" stroke-width="0" stroke-linejoin="miter" stroke-miterlimit="2" fill="#fab648" stroke="#fab648"/>
      </g>
      <image id="icon" x="0" y="0" style="display: none;" xlink:href=""/>
    </g>
  </g>
</svg>