<?xml version="1.0" encoding="utf-8"?>
<svg viewBox="61.4963 212.8988 364.0051 61.2" xmlns="http://www.w3.org/2000/svg" xmlns:xlink="http://www.w3.org/1999/xlink">
  <g id="logo-group" transform="matrix(1, 0, 0, 1, -268.5011901855469, -140.50120544433594)">
    <image id="container" x="272" y="144" width="480" height="480" transform="translate(0 0)" style="display: none;" xlink:href=""/>
    <g id="logo-center" transform="translate(0 0)">
      <image id="icon_container" x="0" y="0" style="display: none;" xlink:href=""/>
      <g id="slogan" style="font-style:oblique;font-weight:300;font-size:32px;line-height:1;font-family:'Nunito Sans';font-variant-ligatures:none;text-align:center;text-anchor:middle" transform="translate(0 0)"/>
      <g id="title" style="font-style:normal;font-weight:normal;font-size:72px;line-height:1;font-family:'Atkinson Hyperlegible';font-variant-ligatures:none;text-align:center;text-anchor:middle" transform="translate(0 0)">
        <path id="path654064" style="font-style: normal; font-weight: normal; font-size: 72px; line-height: 1; font-family: 'Atkinson Hyperlegible'; font-variant-ligatures: none; text-align: center; text-anchor: middle; fill: rgb(52, 55, 65);" d="m 375.05994,-13.176 q 1.44,0 2.664,0.576 1.296,0.504 2.232,1.44 1.008,0.936 1.512,2.232 0.576,1.296 0.576,2.736 0,1.44 -0.576,2.736 -0.504,1.296 -1.512,2.304 -0.936,0.936 -2.232,1.44 -1.224,0.576 -2.664,0.576 -2.952,0 -5.04,-2.016 -2.016,-2.088 -2.016,-5.04 0,-2.952 2.016,-4.968 2.088,-2.016 5.04,-2.016 z m -7.056,-34.92 h 13.968 v 12.456 l -3.024,18.144 h -7.992 l -2.952,-18.144 z" stroke-width="0" stroke-linejoin="miter" stroke-miterlimit="2" stroke="#fcfefe" transform="translate(0 315.424) translate(329.99749999999995 37.976) scale(1.25) translate(-368.00394 48.096)"/>
        <path id="path654066" style="font-style: normal; font-weight: normal; font-size: 72px; line-height: 1; font-family: 'Atkinson Hyperlegible'; font-variant-ligatures: none; text-align: center; text-anchor: middle; fill: rgb(52, 55, 65);" d="m 396.02656,-16.416 q 0.288,1.512 0.864,3.024 0.576,1.512 1.512,2.664 0.936,1.152 2.16,1.872 1.296,0.72 3.024,0.72 3.6,0 5.472,-2.232 1.944,-2.304 1.944,-8.064 v -29.664 h 11.376 v 29.664 q 0,9.072 -4.752,14.184 -4.752,5.112 -14.04,5.112 -7.56,0 -12.024,-3.672 -4.464,-3.672 -5.976,-9.792 l 10.44,-3.816 z" stroke-width="0" stroke-linejoin="miter" stroke-miterlimit="2" stroke="#fcfefe" transform="translate(0 315.424) translate(351.97577499999994 37.976) scale(1.25) translate(-385.58656 48.096)"/>
        <path id="path654068" style="font-style: normal; font-weight: normal; font-size: 72px; line-height: 1; font-family: 'Atkinson Hyperlegible'; font-variant-ligatures: none; text-align: center; text-anchor: middle; fill: rgb(52, 55, 65);" d="m 429.18594,-35.712 h 10.944 v 18.72 q 0,1.944 0.072,3.672 0.144,1.656 0.648,2.952 0.576,1.224 1.656,2.016 1.08,0.72 3.096,0.72 3.456,0 4.896,-2.16 1.44,-2.16 1.44,-7.128 v -18.792 h 11.016 V 0 h -9.504 l -1.512,-5.04 q -1.584,2.664 -3.96,4.32 -2.304,1.584 -6.408,1.584 -3.528,0 -5.976,-1.008 -2.376,-1.008 -3.816,-2.88 -1.368,-1.944 -2.016,-4.752 -0.576,-2.808 -0.576,-6.48 v -21.456 z" stroke-width="0" stroke-linejoin="miter" stroke-miterlimit="2" stroke="#fcfefe" transform="translate(0 315.424) translate(406.47499999999997 53.455999999999996) scale(1.25) translate(-429.18594 35.712)"/>
        <path id="path654070" style="font-style: normal; font-weight: normal; font-size: 72px; line-height: 1; font-family: 'Atkinson Hyperlegible'; font-variant-ligatures: none; text-align: center; text-anchor: middle; fill: rgb(52, 55, 65);" d="m 477.44844,-11.592 q 0.792,2.304 3.024,3.384 2.304,1.08 5.4,1.08 2.664,0 4.68,-0.792 2.088,-0.864 2.088,-2.52 0,-1.152 -1.224,-1.872 -1.224,-0.792 -4.32,-1.368 l -6.408,-1.08 q -5.184,-0.864 -8.424,-3.456 -3.24,-2.664 -3.24,-7.2 0,-2.808 1.296,-4.896 1.368,-2.16 3.6,-3.528 2.232,-1.44 5.184,-2.16 3.024,-0.72 6.336,-0.72 2.592,0 4.968,0.432 2.448,0.432 4.536,1.44 2.088,0.936 3.672,2.448 1.656,1.512 2.664,3.6 l -9.216,3.384 q -0.576,-1.944 -2.448,-2.592 -1.8,-0.72 -4.248,-0.72 -5.904,0 -5.904,2.88 0,1.08 1.008,1.8 1.008,0.648 3.384,1.08 l 6.624,1.224 q 6.48,1.152 9.576,3.384 3.096,2.232 3.096,6.696 0,3.168 -1.44,5.544 -1.368,2.304 -3.744,3.888 -2.376,1.584 -5.544,2.304 -3.168,0.792 -6.768,0.792 -6.336,0 -10.872,-2.232 -4.536,-2.304 -6.624,-6.84 l 9.288,-3.384 z" stroke-width="0" stroke-linejoin="miter" stroke-miterlimit="2" stroke="#fcfefe" transform="translate(0 315.424) translate(455.19312499999995 52.196) scale(1.25) translate(-468.16044 36.72)"/>
        <path id="path654072" style="font-style: normal; font-weight: normal; font-size: 72px; line-height: 1; font-family: 'Atkinson Hyperlegible'; font-variant-ligatures: none; text-align: center; text-anchor: middle; stroke: rgb(252, 254, 252); fill: rgb(52, 55, 65);" d="m 505.97506,-35.712 h 5.904 v -8.928 h 10.944 v 8.928 h 7.776 v 8.352 h -7.776 v 14.4 q 0,2.52 0.936,3.312 1.008,0.72 3.672,0.72 h 3.168 V 0 h -6.912 q -3.312,0 -5.544,-0.36 -2.232,-0.432 -3.672,-1.512 -1.368,-1.08 -2.016,-3.024 -0.576,-2.016 -0.576,-5.184 v -17.28 h -5.904 v -8.352 z" stroke-width="0" stroke-linejoin="miter" stroke-miterlimit="2" transform="translate(0 315.424) translate(502.4613999999999 42.296) scale(1.25) translate(-505.97506 44.64)"/>
        <path id="path654074" style="font-style:normal;font-weight:normal;font-size:72px;line-height:1;font-family:'Atkinson Hyperlegible';font-variant-ligatures:none;text-align:center;text-anchor:middle" d="m 551.32831,-48.096 q 5.904,0 10.944,1.224 5.112,1.152 8.856,3.96 3.744,2.808 5.904,7.416 2.16,4.608 2.16,11.448 0,6.912 -2.16,11.52 -2.16,4.608 -5.904,7.416 -3.744,2.736 -8.856,3.96 -5.04,1.152 -10.944,1.152 h -15.84 v -48.096 h 15.84 z m -4.464,38.52 h 4.68 q 3.096,0 5.976,-0.432 2.88,-0.504 5.04,-2.016 2.232,-1.584 3.528,-4.392 1.368,-2.88 1.368,-7.632 0,-4.752 -1.368,-7.632 -1.296,-2.88 -3.528,-4.392 -2.16,-1.584 -5.04,-2.088 -2.88,-0.504 -5.976,-0.504 h -4.68 v 29.088 z" stroke-width="0" stroke-linejoin="miter" stroke-miterlimit="2" fill="#fab648" stroke="#fab648" transform="translate(0 315.424) translate(539.3529624999999 37.976) scale(1.25) translate(-535.48831 48.096)"/>
        <path id="path654076" style="font-style:normal;font-weight:normal;font-size:72px;line-height:1;font-family:'Atkinson Hyperlegible';font-variant-ligatures:none;text-align:center;text-anchor:middle" d="m 583.12644,-18.072 q 0,-4.248 1.512,-7.704 1.512,-3.456 4.104,-5.904 2.664,-2.448 6.12,-3.744 3.528,-1.296 7.416,-1.296 4.392,0 7.92,1.656 3.528,1.584 5.904,4.464 2.376,2.808 3.528,6.768 1.224,3.96 0.936,8.712 h -26.424 q 0.144,1.872 0.864,3.312 0.792,1.368 1.872,2.304 1.152,0.936 2.592,1.44 1.44,0.432 2.952,0.432 2.52,0 4.32,-0.72 1.872,-0.72 2.88,-1.944 l 8.712,3.168 q -2.808,4.104 -7.056,6.048 -4.176,1.944 -8.568,1.944 -4.32,0 -7.92,-1.296 -3.6,-1.296 -6.192,-3.744 -2.592,-2.448 -4.032,-5.976 -1.44,-3.528 -1.44,-7.92 z m 11.016,-3.528 h 16.272 q -0.144,-3.456 -2.376,-5.184 -2.232,-1.8 -5.472,-1.8 -3.096,0 -5.544,1.656 -2.376,1.656 -2.88,5.328 z" stroke-width="0" stroke-linejoin="miter" stroke-miterlimit="2" fill="#fab648" stroke="#fab648" transform="translate(0 315.424) translate(598.900625 52.196) scale(1.25) translate(-583.12644 36.72)"/>
        <path id="path654078" style="font-style:normal;font-weight:normal;font-size:72px;line-height:1;font-family:'Atkinson Hyperlegible';font-variant-ligatures:none;text-align:center;text-anchor:middle" d="m 621.33594,-35.712 h 11.304 l 7.632,24.336 7.632,-24.336 h 11.304 L 646.39194,0 h -12.312 z" stroke-width="0" stroke-linejoin="miter" stroke-miterlimit="2" fill="#fab648" stroke="#fab648" transform="translate(0 315.424) translate(646.6625000000001 53.455999999999996) scale(1.25) translate(-621.33594 35.712)"/>
      </g>
      <image id="icon" x="0" y="0" style="display: none;" xlink:href=""/>
    </g>
  </g>
</svg>